<?xml version="1.0" encoding="UTF-8"?>
<svg width="295px" height="258px" viewBox="0 0 295 258" version="1.1" xmlns="http://www.w3.org/2000/svg" xmlns:xlink="http://www.w3.org/1999/xlink">
    <title>Accordion</title>
    <g id="Page-1" stroke="none" stroke-width="1" fill="none" fill-rule="evenodd">
        <g id="Accordion" transform="translate(-0, 0)" fill="#fff">
            <g id="Group-3" transform="translate(36.862, 186.7123) rotate(-209) translate(-36.862, -186.7123)translate(20.3441, 146.0575)">
                <path d="M10.2884347,77.1678867 C10.0759431,79.2229392 9.71235062,80.2219014 9.19765716,80.1647733 C8.42561696,80.0790812 5.55208559,79.8081562 5.01990677,79.2892367 C4.02916555,78.3231799 5.42342893,58.415191 11.2455878,36.7313243 C17.0677468,15.0474576 20.4659853,8.35093436 23.6923451,2.53413968 C25.7863111,-1.24106534 28.8998019,3.58478598 28.2106656,6.13235421 C27.8379882,7.51005131 22.7487022,14.9289817 16.3918091,38.6043956 C12.1538803,54.388005 10.1194222,67.242502 10.2884347,77.1678867 Z" id="Oval" transform="translate(16.5179, 40.6547) rotate(-187) translate(-16.5179, -40.6547)"></path>
            </g>
            <g id="Group-3" transform="translate(258.002, 213.88) rotate(-343) translate(-258.002, -213.88)translate(241.4841, 173.2253)">
                <path d="M10.2884347,77.1678867 C10.0759431,79.2229392 9.71235062,80.2219014 9.19765716,80.1647733 C8.42561696,80.0790812 5.55208559,79.8081562 5.01990677,79.2892367 C4.02916555,78.3231799 5.42342893,58.415191 11.2455878,36.7313243 C17.0677468,15.0474576 20.4659853,8.35093436 23.6923451,2.53413968 C25.7863111,-1.24106534 28.8998019,3.58478598 28.2106656,6.13235421 C27.8379882,7.51005131 22.7487022,14.9289817 16.3918091,38.6043956 C12.1538803,54.388005 10.1194222,67.242502 10.2884347,77.1678867 Z" id="Oval" transform="translate(16.5179, 40.6547) rotate(-187) translate(-16.5179, -40.6547)"></path>
            </g>
            <path d="M54.9429213,47.7872551 C55.3012574,48.8521742 55.5943079,49.7153721 55.8220726,50.3768489 C56.0326605,50.9884405 56.309417,51.7502133 56.6523422,52.6621672 L56.6548824,52.6612167 C57.0420007,53.6957278 56.5171852,54.8481861 55.4826741,55.2353044 C55.4528371,55.2464696 55.4227377,55.2569202 55.3924015,55.2666474 C54.0745256,55.6871584 52.1289318,56.3402047 49.5557589,57.2262192 C46.7870142,58.1795744 38.1923141,61.138967 35.4235694,62.0923222 C34.2609816,62.4926333 32.3431313,63.1939631 29.6700183,64.1963116 L29.670563,64.1977632 C28.6364162,64.5858534 27.4834652,64.0621211 27.0953749,63.0279743 C27.0892414,63.0116304 27.0833222,62.995207 27.0776188,62.9787082 C26.6559321,61.7566168 26.235038,60.5342514 25.8141438,59.311886 C25.6674547,58.8858699 25.5207655,58.4598537 25.3740764,58.0338375 L25.3731884,58.034142 C25.0150033,56.9892605 25.5716806,55.8518504 26.6165621,55.4936653 C26.6295893,55.4891995 26.6426623,55.4848685 26.6557789,55.4806728 C28.3774211,54.9301063 30.2239189,54.3147088 32.1956866,53.6357748 C33.8838113,53.0545068 37.872604,51.4978631 39.3172208,51.0271298 C40.7702506,50.5536552 45.128968,49.0549223 52.393373,46.5309312 L52.3933487,46.5308612 C53.4370816,46.1693428 54.5762628,46.7223868 54.9377812,47.7661196 C54.9401459,47.7729468 54.9424736,47.7797867 54.9447642,47.786639 Z" id="Rectangle"></path>
            <path d="M64.2336673,74.7695405 C64.5920034,75.8344596 64.8850538,76.6976575 65.1128185,77.3591343 C65.3234064,77.9707259 65.600163,78.7324987 65.9430881,79.6444527 L65.9456283,79.6435021 C66.3327466,80.6780132 65.8079311,81.8304715 64.77342,82.2175899 C64.7435831,82.228755 64.7134836,82.2392056 64.6831474,82.2489328 C63.3652715,82.6694438 61.4196777,83.3224901 58.8465048,84.2085046 C56.0777602,85.1618599 47.4830601,88.1212524 44.7143154,89.0746077 C43.5517276,89.4749188 41.6338772,90.1762485 38.9607642,91.178597 L38.961309,91.1800486 C37.9271621,91.5681389 36.7742111,91.0444065 36.3861208,90.0102597 C36.3799874,89.9939159 36.3740682,89.9774924 36.3683648,89.9609936 C35.946678,88.7389022 35.5257839,87.5165368 35.1048897,86.2941714 C34.9582006,85.8681553 34.8115115,85.4421391 34.6648224,85.016123 L34.6639343,85.0164274 C34.3057492,83.971546 34.8624266,82.8341358 35.907308,82.4759507 C35.9203352,82.471485 35.9334082,82.4671539 35.9465249,82.4629582 C37.668167,81.9123917 39.5146649,81.2969942 41.4864325,80.6180602 C43.1745572,80.0367922 47.1633499,78.4801485 48.6079668,78.0094152 C50.0609965,77.5359406 54.4197139,76.0372077 61.6841189,73.5132166 L61.6840947,73.5131466 C62.7278275,73.1516282 63.8670087,73.7046722 64.2285272,74.7484051 C64.2308919,74.7552322 64.2332196,74.7620721 64.2355102,74.7689245 Z" id="Rectangle"></path>
            <path d="M59.5882943,61.2783978 C59.9466304,62.3433169 60.2396808,63.2065148 60.4674455,63.8679916 C60.6780334,64.4795832 60.95479,65.241356 61.2977152,66.1533099 L61.3002553,66.1523594 C61.6873737,67.1868705 61.1625582,68.3393288 60.1280471,68.7264472 C60.0982101,68.7376123 60.0681106,68.7480629 60.0377744,68.7577901 C58.7198986,69.1783011 56.7743048,69.8313474 54.2011318,70.7173619 C51.4323872,71.6707171 42.8376871,74.6301097 40.0689424,75.583465 C38.9063546,75.983776 36.9885042,76.6851058 34.3153913,77.6874543 L34.315936,77.6889059 C33.2817892,78.0769962 32.1288382,77.5532638 31.7407479,76.519117 C31.7346144,76.5027731 31.7286952,76.4863497 31.7229918,76.4698509 C31.3013051,75.2477595 30.8804109,74.0253941 30.4595168,72.8030287 C30.3128276,72.3770126 30.1661385,71.9509964 30.0194494,71.5249803 L30.0185613,71.5252847 C29.6603762,70.4804032 30.2170536,69.3429931 31.2619351,68.984808 C31.2749623,68.9803423 31.2880352,68.9760112 31.3011519,68.9718155 C33.022794,68.421249 34.8692919,67.8058515 36.8410595,67.1269175 C38.5291842,66.5456495 42.5179769,64.9890058 43.9625938,64.5182725 C45.4156236,64.0447979 49.774341,62.546065 57.038746,60.0220739 L57.0387217,60.0220039 C58.0824545,59.6604855 59.2216358,60.2135295 59.5831542,61.2572624 C59.5855189,61.2640895 59.5878466,61.2709294 59.5901372,61.2777817 Z" id="Rectangle"></path>
            <path d="M91.0671832,143.704419 C91.4255193,144.769338 91.7185698,145.632536 91.9463345,146.294013 C92.1569224,146.905604 92.4336789,147.667377 92.7766041,148.579331 L92.7791443,148.578381 C93.1662626,149.612892 92.6414471,150.76535 91.606936,151.152468 C91.577099,151.163633 91.5469996,151.174084 91.5166634,151.183811 C90.1987875,151.604322 88.2531937,152.257369 85.6800208,153.143383 C82.9112761,154.096738 74.316576,157.056131 71.5478313,158.009486 C70.3852435,158.409797 68.4673932,159.111127 65.7942802,160.113475 L65.7948249,160.114927 C64.7606781,160.503017 63.6077271,159.979285 63.2196368,158.945138 C63.2135033,158.928794 63.2075841,158.912371 63.2018807,158.895872 C62.780194,157.673781 62.3592999,156.451415 61.9384057,155.22905 C61.7917166,154.803034 61.6450274,154.377018 61.4983383,153.951001 L61.4974503,153.951306 C61.1392652,152.906424 61.6959425,151.769014 62.740824,151.410829 C62.7538512,151.406363 62.7669242,151.402032 62.7800408,151.397837 C64.501683,150.84727 66.3481808,150.231873 68.3199485,149.552939 C70.0080732,148.971671 73.9968659,147.415027 75.4414827,146.944294 C76.8945125,146.470819 81.2532299,144.972086 88.5176349,142.448095 L88.5176106,142.448025 C89.5613435,142.086507 90.7005247,142.639551 91.0620431,143.683283 C91.0644078,143.690111 91.0667355,143.696951 91.0690261,143.703803 Z" id="Rectangle"></path>
            <path d="M85.2454817,164.778929 C86.3240948,164.786447 87.2007388,164.790206 87.8754137,164.790206 C88.4944665,164.790206 89.2669732,164.777379 90.1929339,164.751726 L90.1929369,164.751826 C91.2970275,164.719304 92.2184344,165.587982 92.2509568,166.692072 C92.2519406,166.725469 92.2520873,166.758885 92.2513968,166.79229 C92.2209484,168.141536 92.2057639,170.127663 92.2057639,172.750669 C92.2057639,175.609148 92.2057639,184.482401 92.2057639,187.340881 C92.2057639,188.533965 92.2431189,190.510347 92.3178288,193.270028 L92.3177627,193.27003 C92.348975,194.374158 91.4792047,195.294534 90.3750763,195.325746 C90.3569159,195.32626 90.3387493,195.326525 90.3205817,195.326544 C89.0755643,195.326545 87.8305469,195.326545 86.5855294,195.326545 C86.1629965,195.326545 85.7404636,195.326545 85.3179306,195.326545 L85.3179306,195.326545 C84.2133612,195.326052 83.31833,194.430223 83.3188224,193.325653 C83.3188289,193.31107 83.3189949,193.296487 83.3193204,193.281907 C83.356219,191.532051 83.3746945,189.648949 83.3746945,187.632598 C83.3746945,185.889761 83.2056117,181.713472 83.2302444,180.230517 C83.2549615,178.742481 83.2569438,174.261037 83.2361913,166.786185 L83.2361969,166.786185 C83.2321628,165.681623 84.1243169,164.782928 85.2288791,164.778894 C85.2344133,164.778874 85.2399476,164.778877 85.2454818,164.778902 Z" id="Rectangle" transform="translate(87.802, 180.0025) rotate(71) translate(-87.802, -180.0025)"></path>
            <path d="M79.7108418,150.609379 C80.7894549,150.616896 81.6660989,150.620655 82.3407738,150.620655 C82.9598266,150.620655 83.7323333,150.607829 84.658294,150.582176 L84.658297,150.582276 C85.7623876,150.549754 86.6837945,151.418431 86.7163169,152.522522 C86.7173007,152.555919 86.7174474,152.589335 86.7167569,152.622739 C86.6863085,153.971985 86.671124,155.958112 86.671124,158.581118 C86.671124,161.439598 86.671124,170.312851 86.671124,173.17133 C86.671124,174.364414 86.708479,176.340797 86.7831889,179.100477 L86.7831228,179.100479 C86.8143351,180.204608 85.9445648,181.124983 84.8404364,181.156196 C84.822276,181.156709 84.8041095,181.156975 84.7859418,181.156993 C83.5409244,181.156994 82.295907,181.156994 81.0508895,181.156994 C80.6283566,181.156994 80.2058237,181.156994 79.7832907,181.156994 L79.7832907,181.156994 C78.6787213,181.156502 77.7836901,180.260672 77.7841825,179.156103 C77.784189,179.141519 77.784355,179.126937 77.7846805,179.112357 C77.8215791,177.362501 77.8400546,175.479398 77.8400546,173.463047 C77.8400546,171.720211 77.6709718,167.543922 77.6956045,166.060967 C77.7203216,164.57293 77.7223039,160.091486 77.7015514,152.616635 L77.7015571,152.616635 C77.6975229,151.512073 78.589677,150.613378 79.6942392,150.609344 C79.6997734,150.609323 79.7053077,150.609326 79.7108419,150.609352 Z" id="Rectangle" transform="translate(82.2673, 165.833) rotate(71) translate(-82.2673, -165.833)"></path>
            <path d="M101.486395,15.0696961 C101.486395,15.0696961 101.486395,15.0696961 101.486395,15.0696961 C101.682984,15.0696961 104.803636,17.0259674 107.364857,16.7485609 C107.364857,16.7485609 107.364857,16.7485609 107.364857,16.7485609 C109.155984,16.5545635 110.765246,17.8492931 110.959243,19.6404203 C110.973479,19.7718598 110.979712,19.9040431 110.977906,20.036239 C110.83651,30.3899705 110.751533,40.2527856 110.723009,49.6246846 C110.689041,60.7853594 110.717977,76.8863749 110.809816,97.9277313 C110.820754,122.096178 110.774475,139.561306 110.670978,150.323117 C110.579007,159.886549 110.672508,172.910045 110.951482,189.393605 L110.951436,189.393606 C110.981123,191.147717 109.5832,192.593772 107.829089,192.62346 C107.516084,192.628757 107.204016,192.587757 106.903002,192.501789 C106.903002,192.501789 106.903002,192.501789 106.903002,192.501789 C106.55109,192.401284 105.432118,192.330932 103.546087,192.290733 L103.546086,192.290743 C100.886319,192.2343 98.7365021,190.105012 98.6545414,187.445908 C98.332682,176.814017 98.1732124,171.062369 98.1760474,170.190967 C98.254113,146.195915 98.1504522,147.609028 98.1516755,129.900486 C98.152774,113.996874 98.2623428,78.1654829 98.2623428,70.4662987 C98.2623428,62.4665974 98.5321701,53.7807768 98.496358,46.1328028 C98.4839445,43.4817928 98.3249274,34.3058274 98.0193069,18.6049065 L98.0193287,18.6049061 C97.9820567,16.6900982 99.5041002,15.1076248 101.418908,15.0703529 C101.441401,15.069915 101.463898,15.0696961 101.486395,15.0696961 Z" id="Rectangle" transform="translate(104.4977, 104.9036) rotate(-19) translate(-104.4977, -104.9036)"></path>
            <path d="M139.249068,1.35868103 C139.249068,1.35868103 139.249068,1.35868103 139.249068,1.35868103 C139.445657,1.35868103 142.566309,3.31495234 145.12753,3.03754588 C145.12753,3.03754588 145.12753,3.03754588 145.12753,3.03754588 C146.918657,2.84354848 148.527919,4.13827803 148.721916,5.92940528 C148.736153,6.06084472 148.742385,6.19302808 148.740579,6.32522391 C148.599183,16.6789555 148.514207,26.5417705 148.485683,35.9136696 C148.451714,47.0743443 148.48065,63.1753598 148.572489,84.2167162 C148.583427,108.385162 148.537148,125.850291 148.433651,136.612102 C148.34168,146.175534 148.435181,159.19903 148.714155,175.68259 L148.714109,175.682591 C148.743796,177.436702 147.345874,178.882757 145.591762,178.912444 C145.278757,178.917742 144.966689,178.876742 144.665676,178.790773 C144.665676,178.790773 144.665676,178.790773 144.665676,178.790773 C144.313763,178.690269 143.194791,178.619917 141.30876,178.579718 L141.308759,178.579728 C138.648992,178.523284 136.499175,176.393997 136.417215,173.734893 C136.095355,163.103002 135.935885,157.351354 135.938721,156.479952 C136.016786,132.4849 135.913125,133.898012 135.914349,116.189471 C135.915447,100.285859 136.025016,64.4544678 136.025016,56.7552836 C136.025016,48.7555823 136.294843,40.0697618 136.259031,32.4217877 C136.246618,29.7707777 136.087601,20.5948123 135.78198,4.89389147 L135.782002,4.89389105 C135.74473,2.97908318 137.266773,1.39660978 139.181581,1.35933779 C139.204074,1.35889996 139.226571,1.35868103 139.249068,1.35868103 Z" id="Rectangle" transform="translate(142.2603, 91.1926) scale(-1, 1) rotate(7) translate(-142.2603, -91.1926)"></path>
            <path d="M118.795689,4.68170825 C118.795689,4.68170825 118.795689,4.68170825 118.795689,4.68170825 C118.959513,4.68170825 121.560056,6.63797955 123.694407,6.36057309 C123.694407,6.36057309 123.694407,6.36057309 123.694407,6.36057309 C125.158584,6.17027072 126.499804,7.20294986 126.690107,8.6671265 C126.706284,8.79159181 126.713676,8.91704184 126.712227,9.04254568 C126.590229,19.6174937 126.517101,29.6822107 126.492868,39.2366968 C126.464561,50.3973715 126.488674,66.4983871 126.565207,87.5397434 C126.574322,111.70819 126.535755,129.173318 126.449508,139.93513 C126.371853,149.624845 126.452868,162.866606 126.692552,179.660414 L126.692509,179.660415 C126.712646,181.071317 125.585208,182.231403 124.174306,182.251539 C123.880268,182.255736 123.587713,182.209139 123.309529,182.113801 C123.309529,182.113801 123.309529,182.113801 123.309529,182.113801 C123.065264,182.030087 122.377531,181.967293 121.24633,181.925418 L121.246334,181.925312 C118.609754,181.826203 116.503931,179.695484 116.435817,177.057921 C116.167595,166.426029 116.034704,160.674381 116.037066,159.802979 C116.102121,135.807928 116.015737,137.22104 116.016756,119.512498 C116.017672,103.608886 116.108979,67.777495 116.108979,60.0783108 C116.108979,52.0786095 116.333835,43.392789 116.303992,35.7448149 C116.293518,33.0608305 116.157817,23.6885604 115.896889,7.6280047 L115.896871,7.62800499 C115.87086,6.0270318 117.14762,4.70810109 118.748593,4.68209079 C118.764291,4.68183577 118.77999,4.68170825 118.795689,4.68170825 Z" id="Rectangle" transform="translate(121.3051, 94.5156) scale(-1, 1) rotate(-165) translate(-121.3051, -94.5156)"></path>
            <path d="M169.108644,34.9645207 C169.108644,34.9645207 169.108644,34.9645207 169.108644,34.9645207 C169.303616,34.9005176 173.066657,35.7342236 175.512078,34.6380786 C175.512078,34.6380786 175.512078,34.6380786 175.512078,34.6380786 C177.279181,33.8459854 179.35382,34.6363872 180.145913,36.4034905 C180.18844,36.4983643 180.226725,36.5950827 180.260657,36.6933589 C183.641041,46.4840276 186.910711,55.7961587 190.069653,64.6297568 C193.847283,75.193441 199.374403,90.4078298 206.651014,110.272923 C214.915274,133.121077 220.833636,149.649748 224.4061,159.858935 C227.569003,168.897701 232.087358,181.123911 237.961167,196.537565 L237.961211,196.537548 C238.604116,198.224616 237.757655,200.113433 236.070587,200.756338 C235.75107,200.878099 235.414427,200.948976 235.072939,200.966385 C235.072939,200.966385 235.072939,200.966385 235.072939,200.966385 C234.667836,200.987037 233.424652,201.318418 231.343386,201.960529 L231.343814,201.961919 C228.852949,202.727825 226.1915,201.452187 225.228333,199.030756 C221.238439,188.980957 219.09506,183.541544 218.798724,182.712308 C210.681948,159.999125 211.061711,161.368997 205.015539,144.624844 C199.585618,129.587326 187.458031,95.6724079 184.828795,88.3926862 C182.096934,80.82882 179.398374,72.5283682 176.751109,65.3087259 C175.83609,62.8132799 172.560865,54.2307436 166.925435,39.5611168 L166.925426,39.56112 C166.229811,37.7503585 167.133815,35.7185385 168.944577,35.022923 C168.998775,35.0021025 169.053481,34.9826291 169.108644,34.9645207 Z" id="Rectangle" transform="translate(202.773, 117.1262) scale(-1, 1) rotate(2) translate(-202.773, -117.1262)"></path>
            <path d="M208.68086,184.640207 C208.68086,184.640207 208.68086,184.640207 208.68086,184.640207 C208.846843,184.597806 210.950572,182.035123 213.188365,181.750666 C213.188365,181.750666 213.188365,181.750666 213.188365,181.750666 C214.69464,181.559196 215.760501,180.182902 215.569031,178.676626 C215.550585,178.531514 215.520587,178.388105 215.479323,178.247765 C212.499241,168.112601 209.705634,158.453502 207.098472,149.270475 C204.039883,138.497417 199.693197,122.938789 194.058414,102.594592 C187.506379,79.2473062 182.725857,62.387269 179.716848,52.01448 C177.013618,42.6957875 173.510404,29.9204294 169.207206,13.6884059 L169.207192,13.6884097 C168.819867,12.2273887 167.321487,11.3569858 165.860466,11.7443105 C165.585747,11.81714 165.324049,11.9323167 165.084782,12.0856988 C165.084782,12.0856988 165.084782,12.0856988 165.084782,12.0856988 C164.854772,12.233147 164.148256,12.4796386 162.965233,12.8251737 L162.965178,12.8249865 C160.382019,13.5790963 158.85902,16.2423856 159.519123,18.8511516 C162.117107,29.1244572 163.535258,34.6802438 163.773427,35.5185491 C170.353536,58.679152 169.88238,57.3365483 174.690942,74.4414222 C179.009396,89.8028945 188.829442,124.389729 190.919623,131.82657 C193.091388,139.553688 195.677242,147.885349 197.723283,155.280449 C198.439449,157.868919 200.835677,166.916353 204.911967,182.422753 L204.911973,182.422751 C205.345514,184.071961 207.028673,185.062261 208.68086,184.640207 Z" id="Rectangle" transform="translate(187.6781, 97.2178) scale(-1, 1) rotate(2) translate(-187.6781, -97.2178)"></path>
            <path d="M161.378445,1.29212288 C161.378445,1.29212288 161.378445,1.29212288 161.378445,1.29212288 C161.607799,1.29212288 165.248559,3.24839419 168.236651,2.97098772 C168.236651,2.97098772 168.236651,2.97098772 168.236651,2.97098772 C170.353963,2.77442206 172.229732,4.33149505 172.426298,6.44880757 C172.439148,6.58722328 172.444492,6.72623334 172.442308,6.86522709 C172.283062,16.9977679 172.187122,26.658396 172.154495,35.8471114 C172.114865,47.0077861 172.148623,63.1088017 172.25577,84.1501581 C172.26853,108.318604 172.214538,125.783733 172.093792,136.545544 C171.987934,145.980416 172.092683,158.782951 172.408037,174.953149 L172.408086,174.953148 C172.449072,177.054751 170.778612,178.791662 168.677009,178.832648 C168.347294,178.839078 168.01814,178.802629 167.69782,178.724215 C167.69782,178.724215 167.69782,178.724215 167.69782,178.724215 C167.240805,178.61234 165.674935,178.537826 163.000212,178.500673 L163.000213,178.500644 C160.335245,178.462531 158.168631,176.340748 158.074812,173.67716 C157.699216,163.039625 157.513064,157.285037 157.516373,156.413394 C157.607449,132.418342 157.486512,133.831454 157.487939,116.122913 C157.48922,100.219301 157.617051,64.3879097 157.617051,56.6887255 C157.617051,48.6890241 157.931849,40.0032036 157.890068,32.3552295 C157.875768,29.737531 157.694701,20.7578267 157.346869,5.41611644 L157.346892,5.4161159 C157.296411,3.18955109 159.060475,1.34364037 161.28704,1.29315892 C161.317503,1.29246825 161.347974,1.29212288 161.378445,1.29212288 Z" id="Rectangle" transform="translate(164.8916, 91.1261) scale(-1, 1) rotate(-183) translate(-164.8916, -91.1261)"></path>
            <path d="M82.1744964,117.37901 C82.5328325,118.443929 82.8258829,119.307127 83.0536476,119.968603 C83.2642355,120.580195 83.5409921,121.341968 83.8839173,122.253922 L83.8864574,122.252971 C84.2735758,123.287482 83.7487603,124.439941 82.7142492,124.827059 C82.6844122,124.838224 82.6543127,124.848675 82.6239765,124.858402 C81.3061007,125.278913 79.3605069,125.931959 76.787334,126.817974 C74.0185893,127.771329 65.4238892,130.730722 62.6551445,131.684077 C61.4925567,132.084388 59.5747063,132.785718 56.9015934,133.788066 L56.9021381,133.789518 C55.8679913,134.177608 54.7150403,133.653876 54.32695,132.619729 C54.3208165,132.603385 54.3148973,132.586962 54.3091939,132.570463 C53.8875072,131.348371 53.466613,130.126006 53.0457189,128.903641 C52.8990297,128.477624 52.7523406,128.051608 52.6056515,127.625592 L52.6047635,127.625897 C52.2465784,126.581015 52.8032557,125.443605 53.8481372,125.08542 C53.8611644,125.080954 53.8742373,125.076623 53.887354,125.072427 C55.6089961,124.521861 57.455494,123.906463 59.4272616,123.227529 C61.1153863,122.646261 65.104179,121.089618 66.5487959,120.618884 C68.0018257,120.14541 72.3605431,118.646677 79.6249481,116.122686 L79.6249238,116.122616 C80.6686566,115.761097 81.8078379,116.314141 82.1693563,117.357874 C82.171721,117.364701 82.1740487,117.371541 82.1763393,117.378394 Z" id="Rectangle"></path>
            <path d="M75.2865198,101.645263 C75.6448559,102.710182 75.9379063,103.57338 76.165671,104.234857 C76.3762589,104.846449 76.6530155,105.608222 76.9959407,106.520175 L76.9984808,106.519225 C77.3855992,107.553736 76.8607836,108.706194 75.8262726,109.093313 C75.7964356,109.104478 75.7663361,109.114928 75.7359999,109.124656 C74.418124,109.545167 72.4725303,110.198213 69.8993573,111.084227 C67.1306127,112.037583 58.5359126,114.996975 55.7671679,115.95033 C54.6045801,116.350642 52.6867297,117.051971 50.0136168,118.05432 L50.0141615,118.055771 C48.9800146,118.443862 47.8270636,117.920129 47.4389734,116.885983 C47.4328399,116.869639 47.4269207,116.853215 47.4212173,116.836716 C46.9995306,115.614625 46.5786364,114.39226 46.1577423,113.169894 C46.0110531,112.743878 45.864364,112.317862 45.7176749,111.891846 L45.7167868,111.89215 C45.3586017,110.847269 45.9152791,109.709859 46.9601605,109.351674 C46.9731877,109.347208 46.9862607,109.342877 46.9993774,109.338681 C48.7210195,108.788115 50.5675174,108.172717 52.539285,107.493783 C54.2274097,106.912515 58.2162024,105.355871 59.6608193,104.885138 C61.1138491,104.411663 65.4725664,102.912931 72.7369714,100.388939 L72.7369472,100.388869 C73.78068,100.027351 74.9198612,100.580395 75.2813797,101.624128 C75.2837444,101.630955 75.2860721,101.637795 75.2883627,101.644647 Z" id="Rectangle"></path>
            <path d="M242.978329,56.1439209 C244.616907,56.2297951 253.232376,60.0856636 262.994955,64.8062362 L263.834421,65.2129065 C265.237759,65.8939941 266.661109,66.5910345 268.087473,67.2955578 L269.580983,68.035432 L269.990304,68.2389698 L270.80811,68.6466132 L271.624203,69.054717 C271.760036,69.122753 271.895768,69.1907932 272.031384,69.2588304 L272.843569,69.6669573 C273.248846,69.870943 273.652811,70.0747676 274.055062,70.2782307 L274.857161,70.6846157 C274.990423,70.7522464 275.123466,70.8198221 275.256273,70.8873354 L276.050176,71.291607 C286.199337,76.4686235 294.778125,81.1876148 294.990749,82.061877 C295.47043,84.0366979 277.290612,132.624885 242.308895,222.864609 C238.538527,232.592337 235.342405,238.065011 233.47618,237.999229 C229.284963,237.849422 180.754868,215.336033 180.846672,213.584294 C180.93758,211.849666 230.185842,83.0122085 236.848084,67.0815989 C239.382458,61.0207753 242.140046,56.0999883 242.978329,56.1439209 Z M240.66857,74.6767433 C239.972519,74.6402648 237.682816,78.7261241 235.578454,83.758586 C233.089122,89.7110086 223.439316,114.647712 213.570673,140.408727 L212.254166,143.846819 C200.624337,174.231619 189.11891,204.64028 189.078904,205.403643 C189.042952,206.089633 197.987095,210.610133 207.813882,215.208681 L208.571393,215.562506 L209.331567,215.916259 C209.839056,216.151986 210.347773,216.387411 210.856627,216.622029 L212.118642,217.202117 C212.687355,217.46272 213.25511,217.721786 213.820377,217.978608 L214.666221,218.362068 C223.383371,222.305257 231.319095,225.623844 232.778684,225.676014 C234.328264,225.730635 236.982094,221.186529 240.112737,213.10934 C258.702373,165.155148 271.577642,131.366713 278.334208,112.824054 L278.949698,111.130378 C282.335754,101.786359 283.991384,96.7546269 283.855965,96.1971133 C283.670992,95.4365467 275.860496,91.171626 266.914257,86.6365453 L266.166247,86.2580659 C266.041187,86.1949048 265.915942,86.131709 265.790531,86.0684871 L265.036199,85.6889114 C264.910189,85.6256196 264.784048,85.5623191 264.657791,85.4990184 L263.899015,85.1192823 C263.519077,84.9294828 263.138419,84.7398382 262.757511,84.5505823 L261.517408,83.936245 L260.279133,83.3264466 C251.007924,78.7744615 242.194545,74.7567163 240.66857,74.6767433 Z M226.475285,179.114024 C227.101131,179.04342 227.917454,179.295089 228.421846,179.51631 C229.317511,179.909138 229.7764,180.554356 230.337173,181.612564 C230.679291,182.258229 230.713227,183.176862 230.723421,183.859677 C230.735619,184.67666 230.554878,185.704104 230.177888,186.343785 C229.817091,186.955987 229.27672,187.189285 228.545943,187.579168 C228.160127,187.785009 227.693341,188.118813 227.30689,188.240227 C226.875961,188.375615 226.524404,188.284381 226.073554,188.229328 C225.565216,188.167255 224.885184,187.96548 224.411591,187.703265 C223.599854,187.25383 223.060293,186.573887 222.614551,185.732732 C222.100989,184.763558 221.854832,183.895776 222.070596,182.904825 C222.232667,182.16047 222.55607,181.541848 223.110983,180.908944 C223.46188,180.508731 223.950755,180.008894 224.40577,179.766132 C224.903303,179.500691 225.946661,179.17366 226.475285,179.114024 Z M218.099029,164.672371 C218.724875,164.601767 219.541198,164.853436 220.04559,165.074656 C220.941256,165.467484 221.400144,166.112703 221.960917,167.170911 C222.303036,167.816575 222.336971,168.735208 222.347165,169.418024 C222.359363,170.235006 222.178623,171.26245 221.801632,171.902131 C221.440835,172.514333 220.900464,172.747631 220.169687,173.137515 C219.783871,173.343355 219.317086,173.677159 218.930634,173.798573 C218.499706,173.933961 218.148148,173.842727 217.697298,173.787674 C217.18896,173.725601 216.508928,173.523826 216.035335,173.261612 C215.223598,172.812177 214.684038,172.132234 214.238295,171.291079 C213.724734,170.321904 213.478576,169.454122 213.69434,168.463171 C213.856411,167.718816 214.179814,167.100194 214.734727,166.467291 C215.085624,166.067077 215.5745,165.56724 216.029514,165.324478 C216.527048,165.059037 217.570405,164.732007 218.099029,164.672371 Z M235.720217,161.96326 C236.347196,161.903627 237.159017,162.169553 237.659485,162.399572 C238.548181,162.808025 238.995777,163.461181 239.538059,164.529049 C239.868896,165.180605 239.886848,166.099693 239.885164,166.782583 C239.88315,167.599655 239.684567,168.623777 239.296507,169.256759 C238.925117,169.86255 238.380771,170.086349 237.643323,170.463376 C237.253986,170.662429 236.781466,170.988008 236.392961,171.102636 C235.959744,171.230457 235.609827,171.133081 235.160003,171.070141 C234.652822,170.999175 233.976403,170.785523 233.507443,170.515054 C232.703647,170.051473 232.175994,169.362185 231.744951,168.513352 C231.248324,167.535332 231.017297,166.663371 231.250264,165.676349 C231.425258,164.934946 231.759371,164.322082 232.325208,163.698992 C232.683012,163.304984 233.180507,162.813785 233.639675,162.579028 C234.141749,162.32234 235.190636,162.01363 235.720217,161.96326 Z M225.099635,148.198328 C225.726613,148.138695 226.538435,148.404621 227.038902,148.63464 C227.927599,149.043093 228.375195,149.696249 228.917476,150.764117 C229.248313,151.415674 229.266265,152.334761 229.264582,153.017651 C229.262568,153.834723 229.063984,154.858845 228.675925,155.491827 C228.304535,156.097618 227.760188,156.321417 227.022741,156.698444 C226.633403,156.897497 226.160883,157.223076 225.772379,157.337704 C225.339161,157.465525 224.989244,157.368149 224.53942,157.305209 C224.032239,157.234243 223.35582,157.020591 222.88686,156.750123 C222.083064,156.286541 221.555412,155.597253 221.124368,154.74842 C220.627741,153.7704 220.396714,152.898439 220.629681,151.911417 C220.804675,151.170014 221.138789,150.55715 221.704625,149.93406 C222.06243,149.540052 222.559925,149.048853 223.019092,148.814096 C223.521167,148.557408 224.570054,148.248698 225.099635,148.198328 Z M240.093415,144.410927 C240.720393,144.351294 241.532215,144.61722 242.032682,144.847239 C242.921379,145.255692 243.368975,145.908848 243.911256,146.976716 C244.242093,147.628273 244.260045,148.54736 244.258362,149.23025 C244.256348,150.047322 244.057764,151.071444 243.669705,151.704426 C243.298315,152.310217 242.753968,152.534016 242.016521,152.911043 C241.627183,153.110096 241.154663,153.435675 240.766159,153.550303 C240.332941,153.678124 239.983024,153.580748 239.5332,153.517808 C239.026019,153.446842 238.3496,153.23319 237.88064,152.962722 C237.076844,152.49914 236.549192,151.809852 236.118148,150.961019 C235.621521,149.982999 235.390494,149.111038 235.623461,148.124016 C235.798455,147.382613 236.132569,146.769749 236.698405,146.146659 C237.05621,145.752651 237.553705,145.261452 238.012872,145.026695 C238.514947,144.770007 239.563834,144.461297 240.093415,144.410927 Z M231.969621,129.82479 C232.5966,129.765157 233.408421,130.031083 233.908889,130.261102 C234.797585,130.669555 235.245181,131.322711 235.787463,132.390579 C236.1183,133.042135 236.136252,133.961223 236.134568,134.644113 C236.132554,135.461184 235.933971,136.485307 235.545911,137.118289 C235.174521,137.72408 234.630175,137.947879 233.892727,138.324906 C233.50339,138.523959 233.03087,138.849538 232.642365,138.964166 C232.209148,139.091986 231.859231,138.99461 231.409407,138.93167 C230.902226,138.860705 230.225807,138.647052 229.756847,138.376584 C228.953051,137.913002 228.425398,137.223715 227.994355,136.374882 C227.497728,135.396861 227.266701,134.524901 227.499668,133.537879 C227.674662,132.796476 228.008775,132.183611 228.574612,131.560522 C228.932416,131.166514 229.429911,130.675314 229.889079,130.440558 C230.391153,130.18387 231.44004,129.87516 231.969621,129.82479 Z M248.839809,129.052636 C249.466788,128.993003 250.278609,129.258929 250.779077,129.488948 C251.667773,129.897401 252.115369,130.550557 252.657651,131.618425 C252.988488,132.269981 253.00644,133.189069 253.004756,133.871959 C253.002742,134.689031 252.804159,135.713153 252.416099,136.346135 C252.044709,136.951926 251.500363,137.175725 250.762915,137.552752 C250.373578,137.751805 249.901058,138.077384 249.512554,138.192012 C249.079336,138.319833 248.729419,138.222457 248.279595,138.159517 C247.772414,138.088551 247.095995,137.874899 246.627035,137.60443 C245.823239,137.140849 245.295586,136.451561 244.864543,135.602728 C244.367916,134.624708 244.136889,133.752747 244.369856,132.765725 C244.54485,132.024322 244.878963,131.411458 245.4448,130.788368 C245.802604,130.39436 246.300099,129.903161 246.759267,129.668404 C247.261341,129.411716 248.310228,129.103006 248.839809,129.052636 Z M237.74807,114.57468 C238.377826,114.581133 239.157498,114.93075 239.631263,115.212 C240.472541,115.711426 240.849643,116.40795 241.277704,117.526847 C241.538859,118.209531 241.460968,119.125467 241.388154,119.804439 C241.301034,120.616824 240.996851,121.614508 240.544977,122.203321 C240.112514,122.766841 239.547835,122.93232 238.77515,123.229936 C238.36721,123.387063 237.863361,123.661298 237.465043,123.73455 C237.020883,123.816233 236.683027,123.68269 236.242224,123.572915 C235.745214,123.449143 235.094757,123.165715 234.656542,122.847543 C233.905442,122.302195 233.452486,121.561341 233.112232,120.671947 C232.720207,119.647197 232.581282,118.755782 232.915795,117.798602 C233.167065,117.079614 233.563193,116.50515 234.190839,115.944821 C234.587729,115.590499 235.133669,115.15417 235.614778,114.968859 C236.140842,114.766237 237.216143,114.569229 237.74807,114.57468 Z M253.054261,112.380638 C253.684017,112.387092 254.463689,112.736708 254.937453,113.017959 C255.778732,113.517384 256.155834,114.213908 256.583895,115.332805 C256.84505,116.01549 256.767159,116.931425 256.694345,117.610398 C256.607224,118.422782 256.303042,119.420466 255.851168,120.009279 C255.418704,120.572799 254.854025,120.738279 254.081341,121.035894 C253.6734,121.193021 253.169552,121.467257 252.771234,121.540509 C252.327074,121.622192 251.989218,121.488648 251.548415,121.378874 C251.051405,121.255102 250.400948,120.971674 249.962732,120.653501 C249.211632,120.108153 248.758676,119.367299 248.418422,118.477905 C248.026398,117.453155 247.887472,116.56174 248.221985,115.60456 C248.473255,114.885572 248.869383,114.311108 249.49703,113.750779 C249.89392,113.396458 250.43986,112.960128 250.920969,112.774818 C251.447033,112.572195 252.522334,112.375188 253.054261,112.380638 Z M246.494465,97.0223473 C247.124221,97.0288006 247.903893,97.3784171 248.377657,97.6596676 C249.218935,98.1590929 249.596038,98.8556169 250.024099,99.9745138 C250.285254,100.657198 250.207363,101.573134 250.134549,102.252107 C250.047428,103.064491 249.743246,104.062175 249.291372,104.650988 C248.858908,105.214508 248.294229,105.379988 247.521545,105.677603 C247.113604,105.83473 246.609756,106.108966 246.211438,106.182218 C245.767278,106.263901 245.429422,106.130357 244.988619,106.020583 C244.491609,105.896811 243.841152,105.613383 243.402936,105.29521 C242.651836,104.749862 242.19888,104.009008 241.858626,103.119614 C241.466602,102.094864 241.327676,101.203449 241.662189,100.246269 C241.913459,99.5272808 242.309587,98.9528171 242.937234,98.3924882 C243.334124,98.0381665 243.880064,97.6018371 244.361173,97.4165265 C244.887237,97.2139037 245.962538,97.0168964 246.494465,97.0223473 Z M60.3711842,23.000207 C61.3739247,22.9632385 63.3319986,27.8847836 65.2202924,33.0109761 L65.4661116,33.6803798 C65.5069874,33.7920102 65.5478092,33.9036397 65.5885664,34.0152194 L65.8322506,34.6837092 C66.3986458,36.2403008 66.9482563,37.7679855 67.4521832,39.1327468 C71.5935355,50.3432463 75.9232423,62.038264 80.2543552,73.7321417 L81.7827373,77.8585545 C102.408464,133.543136 122.566797,187.904705 122.035453,188.409422 C120.244629,190.105416 62.486851,210.253877 59.4452923,210.253877 C58.2586981,210.253877 55.9434854,205.692691 52.4996544,196.570318 C17.0423081,97.7915853 -0.454585584,47.7045135 0.00897333474,46.3091031 C0.339587054,45.315641 10.2939498,41.1371026 22.2458996,36.5094531 L23.1459221,36.16158 C24.8023933,35.5224257 26.4930267,34.8760736 28.1979975,34.229636 L29.1292842,33.877068 C29.2846959,33.8183195 29.4401963,33.759581 29.5957706,33.7008578 L30.5299824,33.3487453 C30.8416022,33.2314643 31.153398,33.1142873 31.4652507,32.9972571 C47.0556992,27.1457482 58.9542682,23.0532829 60.3711842,23.000207 Z M48.6247931,37.3780233 C42.8413568,39.3719907 36.7024808,41.6269574 30.2081651,44.1429234 C20.4666915,47.9168724 11.7775054,51.2956544 10.8960844,51.6510956 C10.0167471,52.0065368 19.2435375,79.5762273 31.400063,112.918701 C43.5565885,146.261174 55.4172233,179.185481 57.7572607,186.085222 L57.8875649,186.468055 L58.1497508,187.230232 C60.3859408,193.685707 62.7935389,199.498596 63.6417359,200.434591 C63.979943,200.809401 64.6079571,201.537009 66.0813287,201.346896 C69.617724,200.890584 82.3720365,196.333037 104.344266,187.674253 L96.8392407,167.630293 C88.3000918,143.767037 83.0742789,129.529599 81.1618021,124.917977 L72.4246901,102.036134 L57.5593056,62.1458114 L48.6247931,37.3780233 Z" id="Shape"></path>
        </g>
    </g>
</svg>