<?xml version="1.0" encoding="UTF-8"?>
<svg width="369px" height="366px" viewBox="0 0 369 366" version="1.1" xmlns="http://www.w3.org/2000/svg" xmlns:xlink="http://www.w3.org/1999/xlink">
    <title>Triangulo</title>
    <g id="Page-1" stroke="none" stroke-width="1" fill="none" fill-rule="evenodd">
        <g id="Triangulo" transform="translate(183.5998, 184.9689) rotate(-48) translate(-183.5998, -184.9689)translate(59.9305, 45.3212)" fill="#fff">
            <path d="M24.6335136,134.960645 C24.6335136,134.960645 24.6335136,134.960645 24.6335136,134.960645 C24.6713821,134.859586 26.6879813,134.514532 26.9806233,133.019361 C26.9806233,133.019361 26.9806233,133.019361 26.9806233,133.019361 C27.111442,132.350981 27.7593212,131.915201 28.4277019,132.046019 C28.6473534,132.089011 28.8511631,132.190971 29.0172815,132.34097 C36.8602211,139.422836 44.3262138,146.12707 51.4152795,152.453649 C59.4841322,159.654631 71.1397253,170.003107 86.3820587,183.499075 C103.871439,199.049369 116.499559,210.314515 124.266418,217.294512 C131.455071,223.754882 141.398328,232.527722 154.096186,243.613031 L154.096191,243.613025 C154.851506,244.27242 154.929264,245.419268 154.26987,246.174583 C154.205342,246.248498 154.134927,246.31706 154.059318,246.379596 C154.059318,246.379596 154.059318,246.379596 154.059318,246.379596 C154.059147,246.379737 154.058976,246.379879 154.058805,246.380022 L154.057845,246.378867 C152.179539,247.940527 149.447813,247.916426 147.597353,246.321869 C140.619187,240.309416 136.831365,237.037759 136.235092,236.505502 C118.888317,221.02106 119.890818,221.983891 107.077896,210.585235 C95.5709216,200.348379 69.6659363,177.229332 64.0951296,172.273785 C58.3068814,167.124811 52.0741623,161.395513 46.5335108,156.491336 C44.5516838,154.737169 37.5125324,148.591225 25.4160566,138.053502 L25.4160593,138.053499 C24.5357448,137.286622 24.2238471,136.053909 24.6335136,134.960645 Z" id="Rectangle" transform="translate(90.2136, 189.8829) rotate(220) translate(-90.2136, -189.8829)"></path>
            <path d="M53.207533,156.916412 C53.1317619,156.663328 53.1055763,156.505562 53.1289761,156.443116 C53.1439539,156.403145 54.5817175,156.275471 54.697464,155.684097 C54.697464,155.684097 54.697464,155.684097 54.697464,155.684097 C54.7489991,155.420793 55.0042268,155.249121 55.2675309,155.300656 C55.3543928,155.317657 55.4349596,155.358065 55.50053,155.417518 L63.6368979,162.794679 L63.6368979,162.794679 L78.1920615,175.649954 C85.109503,181.800444 90.1042071,186.256061 93.1761736,189.016806 C96.0194449,191.572025 99.9522214,195.041876 104.974503,199.426359 L104.974517,199.426343 C105.273268,199.687154 105.304024,200.140769 105.043213,200.439519 C105.01769,200.468755 104.989838,200.495873 104.959933,200.520608 C104.959933,200.520608 104.959933,200.520608 104.959933,200.520608 C104.959933,200.520608 104.959933,200.520608 104.959933,200.520608 C104.102974,201.229395 102.897956,201.337085 101.928895,200.791486 C98.843132,199.054167 97.1845255,198.082195 96.9530667,197.875585 C90.0920288,191.751141 90.4885403,192.131963 85.4207428,187.623539 C80.8694767,183.574633 70.6234751,174.430533 68.4200963,172.470503 C66.1307146,170.433968 63.6655346,168.167903 61.4740829,166.228191 C60.6438027,165.493288 57.888286,162.389362 53.207533,156.916412 L53.207533,156.916412 Z" id="Rectangle" transform="translate(79.6641, 178.1749) rotate(41) translate(-79.6641, -178.1749)"></path>
            <path d="M163.582084,79.7737564 C163.506313,79.520672 163.480127,79.3629066 163.503527,79.3004602 C163.518505,79.2604894 164.956268,79.1328152 165.072015,78.5414417 C165.072015,78.5414417 165.072015,78.5414417 165.072015,78.5414417 C165.12355,78.2781376 165.378778,78.1064649 165.642082,78.1580001 C165.728944,78.1750011 165.80951,78.2154098 165.875081,78.274862 L174.011449,85.6520236 L174.011449,85.6520236 L188.566612,98.5072985 C195.484054,104.657788 200.478758,109.113405 203.550724,111.874151 C206.393996,114.42937 210.326772,117.899221 215.349054,122.283704 L215.349068,122.283688 C215.647818,122.544499 215.678574,122.998113 215.417763,123.296863 C215.39224,123.326099 215.364389,123.353218 215.334484,123.377952 C215.334484,123.377952 215.334484,123.377952 215.334484,123.377952 C215.334484,123.377952 215.334484,123.377952 215.334484,123.377952 C214.477524,124.086739 213.272507,124.194429 212.303446,123.648831 C209.217683,121.911511 207.559076,120.939539 207.327618,120.732929 C200.46658,114.608486 200.863091,114.989307 195.795294,110.480883 C191.244028,106.431977 180.998026,97.2878769 178.794647,95.3278471 C176.505265,93.2913127 174.040085,91.0252469 171.848634,89.0855354 C171.018353,88.3506325 168.262837,85.2467062 163.582084,79.7737564 L163.582084,79.7737564 Z" id="Rectangle" transform="translate(190.0387, 101.0323) rotate(197) translate(-190.0387, -101.0323)"></path>
            <path d="M8.91352538,41.9809568 C8.91352538,41.9809568 8.91352538,41.9809568 8.91352538,41.9809568 C8.95139383,41.9153667 10.9679931,41.6914158 11.2606351,40.7210026 C11.2606351,40.7210026 11.2606351,40.7210026 11.2606351,40.7210026 C11.4426495,40.1174352 12.0794894,39.775699 12.6830568,39.9577135 C12.7695965,39.9838108 12.85273,40.0200947 12.9307105,40.0658029 C20.9076535,44.7415044 28.4958503,49.1643878 35.6952913,53.3344698 C43.764144,58.008135 55.419737,64.7246227 70.6620705,73.4839327 C88.1514509,83.5765656 100.779571,90.8880015 108.546429,95.4182402 C115.732018,99.609437 125.669861,105.30022 138.359958,112.490589 L138.359948,112.490606 C138.855182,112.771212 139.029172,113.400154 138.748567,113.895388 C138.652646,114.064675 138.510764,114.203352 138.33933,114.295379 C138.33933,114.295379 138.33933,114.295379 138.33933,114.295379 C138.324858,114.303148 138.309049,114.313766 138.291904,114.327233 L138.292017,114.327377 C136.706091,115.570554 134.528889,115.74021 132.769531,114.757709 C125.221497,110.536298 121.136305,108.246675 120.515104,107.88678 C103.168329,97.8368874 104.17083,98.4617953 91.3579078,91.0637072 C79.8509334,84.4196637 53.945948,69.4146713 48.3751414,66.1983646 C42.5868932,62.8565179 36.3541741,59.1380221 30.8135225,55.9550566 C28.8165728,54.8078589 21.6848219,50.7665916 9.41826994,43.8312544 L9.41826705,43.8312595 C8.76919102,43.464281 8.54050581,42.640606 8.90748433,41.99153 C8.90948211,41.9879965 8.91149581,41.9844721 8.91352538,41.9809568 Z" id="Rectangle" transform="translate(74.4936, 77.6273) rotate(-238) translate(-74.4936, -77.6273)"></path>
            <path d="M115.426718,58.3890853 C115.426718,58.3890853 115.426718,58.3890853 115.426718,58.3890853 C115.4595,58.3234952 117.205213,58.0995442 117.458545,57.1291311 C117.458545,57.1291311 117.458545,57.1291311 117.458545,57.1291311 C117.60012,56.586812 118.154526,56.2619451 118.696846,56.4035206 C118.808341,56.432627 118.914064,56.4805092 119.009482,56.5451135 C125.876403,61.1945474 132.410231,65.5936931 138.610934,69.7425983 C145.595911,74.4162635 155.685827,81.1327512 168.880683,89.8920612 C184.020744,99.9846941 194.952549,107.29613 201.676098,111.826369 C207.897247,116.018097 216.50155,121.709792 227.489004,128.901454 L227.489027,128.901419 C227.982779,129.224596 228.121056,129.886848 227.797879,130.380599 C227.712464,130.511097 227.599516,130.621313 227.466967,130.703508 C227.466967,130.703508 227.466967,130.703508 227.466967,130.703508 C227.46534,130.704517 227.463692,130.705575 227.462026,130.70668 L227.463459,130.708844 C225.807866,131.805798 223.659994,131.818898 221.991143,130.74222 C215.87482,126.791351 212.55656,124.642598 212.03704,124.294909 C197.020429,114.245016 197.888266,114.869924 186.796482,107.471836 C176.835221,100.827792 154.41001,85.8227998 149.58752,82.6064931 C144.576798,79.2646464 139.18131,75.5461505 134.384925,72.3631851 C132.660443,71.2187883 126.512587,67.1944362 115.941359,60.2901288 L115.941351,60.290141 C115.31196,59.8790716 115.090641,59.0615156 115.426718,58.3890853 Z" id="Rectangle" transform="translate(172.1976, 94.0354) rotate(205) translate(-172.1976, -94.0354)"></path>
            <path d="M15.7425402,105.474134 C15.7425402,105.474134 15.7425402,105.474134 15.7425402,105.474134 C15.7999081,105.403412 18.8549054,105.16194 19.2982363,104.115606 C19.2982363,104.115606 19.2982363,104.115606 19.2982363,104.115606 C19.6491754,103.287331 20.6032432,102.89808 21.4334329,103.244465 C33.6624275,108.346807 45.2895855,113.170627 56.3149169,117.715902 C68.5386266,122.755216 86.1959803,129.997176 109.286978,139.44178 C135.782084,150.324022 154.912743,158.207476 166.678954,163.092143 C177.562067,167.610197 192.612709,173.744411 211.830882,181.494786 L211.830908,181.49472 C212.367838,181.711255 212.62757,182.322059 212.411035,182.858989 C212.302,183.129357 212.085302,183.342108 211.812976,183.446156 C211.812976,183.446156 211.812976,183.446156 211.812976,183.446156 C211.686261,183.49457 211.491934,183.645586 211.229996,183.899204 L211.229548,183.89874 C209.8164,185.264861 207.733949,185.676312 205.907433,184.950286 C192.851321,179.756274 185.818896,176.951942 184.810604,176.536173 C158.531534,165.700016 160.050248,166.373814 140.639627,158.396928 C123.207419,151.233081 83.9632999,135.054156 75.5239436,131.586218 C66.7551795,127.982918 57.3130752,123.973501 48.9194016,120.541513 C45.8791747,119.298431 34.9827923,114.903844 16.2302543,107.357751 L16.2302413,107.357783 C15.6106647,107.108463 15.3105124,106.404083 15.5598324,105.784507 C15.6049007,105.672509 15.6664862,105.567891 15.7425402,105.474134 Z" id="Rectangle" transform="translate(115.0915, 143.9093) rotate(173) translate(-115.0915, -143.9093)"></path>
            <path d="M125.30889,34.9364806 C131.666327,34.9364806 139.863224,43.7721679 154.926833,59.2174356 C161.558831,66.0174647 170.141469,73.8255849 179.435337,83.1870963 C183.48553,87.2667672 188.84898,93.1093405 192.660253,96.8694848 C210.768977,114.735274 220.284855,120.573723 225.845939,128.838874 C227.005657,130.562504 224.655352,133.808317 223.670402,132.32046 C223.423664,131.947739 223.164627,133.805055 222.755846,135.91109 C221.315693,133.946475 219.277591,131.705151 216.680266,129.190341 C211.414383,124.091752 206.144139,120.055636 197.335866,111.339609 C191.144313,105.212898 183.798129,99.2275463 176.527544,92.3573116 C173.916891,89.8904133 171.814326,88.1134541 169.752932,86.4000776 L168.802742,85.6115225 C166.742965,83.9028849 164.652527,82.1614676 162.064512,79.7609141 C144.693253,63.6479317 128.782217,44.5070584 125.74572,44.5070584 C120.77901,44.5070584 112.967826,52.1005521 102.056763,62.9963038 L100.816178,64.235781 C100.676879,64.3749983 100.537094,64.5147064 100.396823,64.6548971 L99.549356,65.5017632 C98.8382635,66.2121977 98.1149872,66.9342744 97.3794649,67.6669458 C91.4858386,73.5377273 83.8587458,80.2788409 75.5996073,88.3610693 C72.0003416,91.8832391 67.2340293,96.9274045 63.8470826,100.173712 C47.7544877,115.598079 33.0679739,127.11527 28.1260315,134.25096 C27.8038424,134.71617 27.4525924,135.198023 27.0949915,135.684404 L26.7361149,136.171847 C25.1790989,138.286753 23.6449768,140.410891 23.9816767,141.558621 L24.0113493,141.654586 C24.467018,143.047869 25.6988315,143.110148 39.0894778,143.523003 C51.2609795,143.898269 72.8924935,143.709236 94.4055129,143.565379 L96.3031693,143.552819 C96.6193129,143.55075 96.9353699,143.548695 97.2513099,143.546655 L99.1453021,143.534621 C107.659755,143.481447 116.044489,143.442461 123.699904,143.455814 C158.131167,143.515871 185.747073,144.586123 201.807277,144.586123 C205.804252,144.586123 222.846427,146.269944 224.737589,143.523003 C224.897668,143.290485 225.02316,143.043286 225.11452,142.781438 C225.87702,142.757784 226.659696,142.728565 227.436757,142.696664 L228.056064,142.670663 C231.861965,142.507599 235.370988,142.301344 235.613075,142.458147 C238.028437,144.02261 235.926445,146.591302 220.519566,147.08025 C206.823181,147.514915 182.481606,147.295962 158.273371,147.129334 L156.13797,147.114786 C145.46544,147.042901 134.880566,146.985242 125.30889,147.002427 C122.596746,147.007296 119.863837,147.022026 117.120324,147.044473 L114.766382,147.065554 C113.981027,147.073177 113.195043,147.081381 112.408668,147.090115 L110.048605,147.117856 C109.261684,147.127601 108.474608,147.137825 107.687614,147.148479 L104.1475,147.199159 C71.9127709,147.684289 40.4142234,148.766561 25.9866109,147.002427 C21.3026931,146.429701 18.2565807,144.318169 17.761235,143.266895 C17.0933812,141.849507 15.3245081,140.12054 17.761235,136.340597 C21.4892399,130.557575 30.7973015,121.560737 39.9573661,112.325219 L40.9557834,111.316904 C41.454423,110.812416 41.9520026,110.30754 42.4475927,109.802759 C49.4148422,102.706291 57.6813777,95.7735566 65.8628439,87.8158776 C68.8156319,84.9438569 71.1907996,82.8791987 73.5218832,80.8851859 L74.5197755,80.0327863 C76.8491521,78.0439228 79.2106641,76.0204594 82.1378479,73.2256789 L82.7244556,72.6655087 L85.0727465,70.4215243 C103.664111,52.6487629 122.062818,34.9364806 125.30889,34.9364806 Z" id="Path-5" transform="translate(126.4859, 91.4554) rotate(15) translate(-126.4859, -91.4554)"></path>
        </g>
    </g>
</svg>