<?xml version="1.0" encoding="UTF-8"?>
<svg width="294px" height="279px" viewBox="0 0 294 279" version="1.1" xmlns="http://www.w3.org/2000/svg" xmlns:xlink="http://www.w3.org/1999/xlink">
    <title>Group</title>
    <g id="Page-1" stroke="none" stroke-width="1" fill="none" fill-rule="evenodd">
        <g id="Group" transform="translate(0.4238, 0.3173)" fill="#8A8A8A">
            <path d="M148.50812,199.332742 C171.231833,199.332742 187.328285,199.824748 203.93889,196.070263 C221.295058,192.14726 238.874911,183.818943 249.074048,176.452481 C257.598254,170.29576 268.576224,161.916248 268.576224,154.507738 C268.576224,142.365306 265.740347,134.403491 249.074048,126.614875 C239.688453,122.228731 223.132251,116.081503 207.053683,113.726203 C193.472827,111.736785 163.979015,109.682734 148.50812,109.682734 C134.35928,109.682734 116.08725,111.820797 102.439807,113.726203 C80.8575672,116.739436 65.0709899,120.729807 51.5802204,126.614875 C33.6201128,134.4496 28.4400171,143.387069 28.4400171,154.507738 C28.4400171,164.159546 32.785477,172.816997 46.6900368,180.711438 C54.8023906,185.317301 68.6955996,190.36775 80.2212271,193.349087 C90.443417,195.993264 97.7938153,198.487213 109.979451,199.332742 C120.907377,200.091003 136.511068,199.332742 148.50812,199.332742 Z M148.50812,188.424473 C169.16604,188.424473 183.799179,188.820478 198.899729,185.798576 C214.678064,182.641036 230.659748,175.937757 239.931691,170.008653 C247.680969,165.053243 257.660941,158.308759 257.660941,152.345812 C257.660941,142.572634 255.082872,136.164345 239.931691,129.895458 C231.399332,126.365147 216.348239,121.417378 201.731359,119.521649 C189.385126,117.92041 162.57257,116.26715 148.50812,116.26715 C135.645538,116.26715 119.034602,117.98803 106.627835,119.521649 C87.0076175,121.946934 72.6561836,125.158696 60.3918476,129.895458 C44.0644772,136.201456 39.3552992,143.395029 39.3552992,152.345812 C39.3552992,160.11434 43.3057173,167.082532 55.9462262,173.436594 C63.3210933,177.143752 75.9512833,181.208747 86.4291265,183.608361 C95.7220264,185.736601 102.404207,187.743925 113.482057,188.424473 C123.416536,189.034781 137.60171,188.424473 148.50812,188.424473 Z M148.50812,162.275863 C154.705496,162.275863 159.095438,162.395864 163.625603,161.480136 C168.359103,160.523306 173.153609,158.492009 175.935191,156.695311 C178.259975,155.193672 181.253967,153.149888 181.253967,151.342935 C181.253967,148.381366 180.480546,146.43946 175.935191,144.539797 C173.375484,143.470006 168.860156,141.970682 164.475092,141.396219 C160.771222,140.910995 152.727455,140.410007 148.50812,140.410007 C144.649346,140.410007 139.666065,140.931486 135.944035,141.396219 C130.057969,142.131154 125.752539,143.104415 122.073239,144.539797 C117.175027,146.450706 115.762274,148.630576 115.762274,151.342935 C115.762274,153.697034 116.947399,155.808608 120.739552,157.734081 C122.952012,158.857462 126.741069,160.089279 129.884422,160.816434 C132.672292,161.461356 134.676946,162.069636 138.000301,162.275863 C140.980645,162.460804 145.236197,162.275863 148.50812,162.275863 Z M31.3017298,204.839114 C32.5804752,204.749214 33.4958756,204.823485 34.3573956,203.705059 C35.2575848,202.536432 36.0844505,200.131725 36.5147345,198.02591 C36.8743561,196.265918 37.3287117,193.872975 37.1842409,191.79572 C36.9474358,188.391132 36.6325822,186.169956 35.5428184,184.05206 C34.92912,182.85937 33.8775615,181.201263 32.9268302,180.604476 C32.1237894,180.100397 30.4240087,179.64115 29.5534057,179.702356 C28.7571993,179.758332 27.770662,180.430107 27.0398297,181.018351 C25.8840822,181.948608 25.0735334,183.129914 24.4291277,184.833387 C23.5712377,187.101201 23.4540305,189.627651 23.670899,192.74575 C23.8591284,195.451998 24.2724978,197.862249 25.2089123,200.020743 C25.7552457,201.280076 26.6355589,202.641195 27.3422886,203.431528 C27.969094,204.132481 28.4313636,204.802674 29.1335825,204.991541 C29.7633237,205.160915 30.6266124,204.886577 31.3017298,204.839114 Z M31.3017298,204.839114 C32.5804752,204.749214 33.4958756,204.823485 34.3573956,203.705059 C35.2575848,202.536432 36.0844505,200.131725 36.5147345,198.02591 C36.8743561,196.265918 37.3287117,193.872975 37.1842409,191.79572 C36.9474358,188.391132 36.6325822,186.169956 35.5428184,184.05206 C34.92912,182.85937 33.8775615,181.201263 32.9268302,180.604476 C32.1237894,180.100397 30.4240087,179.64115 29.5534057,179.702356 C28.7571993,179.758332 27.770662,180.430107 27.0398297,181.018351 C25.8840822,181.948608 25.0735334,183.129914 24.4291277,184.833387 C23.5712377,187.101201 23.4540305,189.627651 23.670899,192.74575 C23.8591284,195.451998 24.2724978,197.862249 25.2089123,200.020743 C25.7552457,201.280076 26.6355589,202.641195 27.3422886,203.431528 C27.969094,204.132481 28.4313636,204.802674 29.1335825,204.991541 C29.7633237,205.160915 30.6266124,204.886577 31.3017298,204.839114 Z M77.4250188,210.450547 C74.7315977,210.177732 73.2418415,210.669097 74.1115793,211.543521 C76.4702199,213.91485 103.798846,218.955777 131.049846,220.523801 C156.286044,221.975893 189.644715,218.047605 196.638862,216.198467 C219.657019,210.112844 164.59049,213.20612 145.71444,213.408447 C130.584008,213.568164 95.6296445,212.309133 77.4250188,210.450547 Z M148.756147,278.682734 C156.073888,278.682734 178.410794,277.374302 181.651499,276.899155 C183.811969,276.582391 195.872968,274.316901 217.834496,270.102685 C232.406979,264.87397 244.303649,260.002504 253.524506,255.488287 C269.135816,247.84552 266.16794,244.529371 266.16794,223.812604 C265.477812,227.906134 267.72031,217.479168 262.040445,232.03856 C256.36058,246.597953 237.287137,253.659459 223.049811,257.509787 C202.70867,263.010824 173.566118,267.58426 148.756309,267.634587 C124.137196,267.684527 98.7513561,263.822326 78.2231123,257.509787 C49.7088481,248.741506 30.6828828,236.262038 30.6230735,232.03856 C30.6230735,242.905876 30.8615212,250.691406 49.8189715,258.851195 C62.5355008,264.324726 83.8885562,271.534388 105.060741,275.028767 C120.090107,277.509299 134.205508,278.682734 148.756147,278.682734 Z" id="Oval-2"></path>
            <path d="M219.116435,164.890785 C223.724342,169.095336 247.662176,155.507513 246.53788,148.818449 C245.413584,142.129385 232.143337,137.432345 221.979112,134.682734 C229.294444,138.448516 242.740573,141.956153 241.804017,149.119759 C240.867461,156.283364 214.508527,160.686234 219.116435,164.890785 Z" id="Oval"></path>
            <path d="M19.741335,155.747797 C19.4484664,156.383374 19.236758,156.69502 19.10621,156.682734 C18.0449281,156.580524 14.9046276,155.358812 14.1455072,155.059493 C12.7322758,154.502261 13.1837223,153.51706 13.8122907,149.035685 C14.4408592,144.55431 16.8533287,137.834261 19.741335,132.689761 C24.0751815,124.969738 31.0236654,120.898889 35.0886503,118.247945 C37.726899,116.527434 42.275389,119.170396 41.485354,120.386887 C41.0581116,121.044753 38.7956633,121.509119 37.5183255,122.659003 C33.9679881,125.855083 28.2616807,129.677672 24.7735162,136.310491 C22.4480733,140.732371 20.7706795,147.211473 19.741335,155.747797 Z" id="Oval"></path>
            <path d="M279.371987,153.729379 C279.765982,154.426293 280.030791,154.741118 280.166414,154.673853 C281.268957,154.127029 284.406901,151.333301 285.164913,150.652865 C286.57608,149.386118 285.96801,148.304848 284.700896,142.826974 C283.433783,137.349101 279.987562,129.711919 276.254184,124.27413 C270.651743,116.113986 262.792508,113.6421 258.158288,111.851828 C255.150595,110.689909 250.723615,115.852134 251.719105,117.095915 C252.257456,117.768538 254.700011,117.47337 256.199066,118.440719 C260.365664,121.12945 266.884741,123.77195 271.450641,130.87532 C274.494575,135.6109 277.135023,143.22892 279.371987,153.729379 Z" id="Oval"></path>
            <path d="M108.767539,194.384458 C108.767539,194.384458 108.767539,194.384458 108.767539,194.384458 C108.887445,194.37843 110.833768,195.068709 112.389844,194.878731 C112.389844,194.878731 112.389844,194.878731 112.389844,194.878731 C113.51599,194.741242 114.540368,195.542707 114.677857,196.668853 C114.685056,196.727819 114.689694,196.78707 114.691757,196.846438 C114.826885,200.734516 114.982897,204.447098 115.159776,207.984184 C115.384056,212.469172 115.755153,218.937079 116.273067,227.387903 C116.810282,237.097558 117.165448,244.11582 117.338565,248.442692 C117.485884,252.124772 117.806594,257.07642 118.300696,263.297635 L118.300672,263.297637 C118.390839,264.43292 117.543604,265.426344 116.408321,265.516511 C116.260949,265.528215 116.112745,265.524038 115.966266,265.50405 C115.966266,265.50405 115.966266,265.50405 115.966266,265.50405 C115.882911,265.492676 115.730525,265.486567 115.509109,265.485723 L115.509109,265.485735 C112.946479,265.477704 110.804772,263.533493 110.549623,260.983584 C110.298768,258.465569 110.166872,257.073683 110.153669,256.807952 C109.674546,247.165233 109.64234,247.736147 109.25435,240.621472 C108.905905,234.231954 108.186167,219.832864 108.017155,216.739616 C107.841546,213.525632 107.815451,210.027717 107.625721,206.956141 C107.562549,205.933448 107.28472,202.49618 106.792232,196.644338 L106.79224,196.644337 C106.695557,195.495531 107.548472,194.485862 108.697278,194.389179 C108.72067,194.38721 108.744094,194.385636 108.767539,194.384458 Z" id="Rectangle"></path>
            <path d="M8.75264615,17.629513 C8.75264615,17.629513 8.75264615,17.629513 8.75264615,17.629513 C8.81073552,17.5288992 11.9041538,17.1853635 12.3530601,15.6967714 C12.3530601,15.6967714 12.3530601,15.6967714 12.3530601,15.6967714 C12.6322662,14.7709125 13.6091644,14.2466968 14.5350234,14.5259029 C14.6677733,14.5659355 14.7952983,14.6215943 14.9149185,14.6917096 C27.1513712,21.8641314 38.7914959,28.648736 49.8352778,35.0455488 C62.212718,42.214847 80.0921378,52.5177893 103.473537,65.9543756 C130.301857,81.4362494 149.673111,92.6518289 161.587299,99.6011142 C172.609829,106.030314 187.854251,114.759845 207.320568,125.789706 L207.320573,125.789697 C208.080263,126.220147 208.347164,127.184946 207.916714,127.944636 C207.769572,128.204323 207.551925,128.417054 207.288945,128.558225 C207.288945,128.558225 207.288945,128.558225 207.288945,128.558225 C207.188605,128.612088 207.046398,128.755218 206.862323,128.987616 L206.863424,128.988489 C205.340109,130.91071 202.647436,131.444233 200.506253,130.248089 C187.800242,123.147036 180.947082,119.306989 179.94698,118.727577 C153.337413,103.311265 154.875227,104.26986 135.22049,92.9213576 C117.569048,82.729543 77.8313783,59.7122193 69.2858852,54.7784765 C60.4068415,49.6521582 50.8459894,43.9480685 42.3467535,39.0654704 C39.2834752,37.3056938 28.3435174,31.1064736 9.52687997,20.4678096 L9.52689442,20.467784 C8.53124453,19.9048575 8.18045295,18.6413817 8.74337949,17.6457318 C8.74644398,17.6403116 8.7495329,17.6349053 8.75264615,17.629513 Z" id="Rectangle" transform="translate(109.3511, 72.3101) rotate(7) translate(-109.3511, -72.3101)"></path>
            <path d="M57.7862839,185.382674 C57.7862839,185.382674 57.7862839,185.382674 57.7862839,185.382674 C57.9072475,185.376568 59.8696053,186.054841 61.4395743,185.865372 C61.4395743,185.865372 61.4395743,185.865372 61.4395743,185.865372 C62.5765848,185.728154 63.6095512,186.538646 63.7467693,187.675656 C63.7538904,187.734662 63.7584714,187.793947 63.7604996,187.853347 C63.8907979,191.670042 64.0422352,195.31511 64.2147891,198.788553 C64.4345439,203.212131 64.7995322,209.591413 65.3097538,217.926397 C65.8376244,227.503034 66.1857461,234.425194 66.3541189,238.692878 C66.4969706,242.313691 66.8118576,247.179036 67.2987799,253.288914 L67.2987688,253.288915 C67.3903302,254.437823 66.5331814,255.443422 65.3842735,255.534983 C65.2378994,255.546649 65.0907029,255.542832 64.9451299,255.523598 C64.9451299,255.523598 64.9451299,255.523598 64.9451299,255.523598 C64.8571382,255.511972 64.6928512,255.506136 64.4522688,255.506091 L64.4522688,255.50609 C61.8860187,255.504256 59.7378244,253.559932 59.4809541,251.006569 C59.2359137,248.564482 59.107064,247.21354 59.0942434,246.953758 C58.6248764,237.443066 58.5915634,238.006245 58.2104694,230.989029 C57.8682182,224.687038 57.1630103,210.485107 56.996994,207.434232 C56.8244976,204.264275 56.8032346,200.814056 56.6162869,197.784586 C56.5542162,196.778737 56.2802934,193.40482 55.7945184,187.662836 L55.794552,187.662833 C55.6965323,186.504216 56.5563165,185.485511 57.7149336,185.387491 C57.7386881,185.385481 57.7624749,185.383875 57.7862839,185.382674 Z" id="Rectangle"></path>
            <path d="M164.827832,199.286465 C164.827832,199.286465 164.827832,199.286465 164.827832,199.286465 C164.951457,199.282448 166.943371,200.004653 168.549803,199.840877 C168.549803,199.840877 168.549803,199.840877 168.549803,199.840877 C169.714966,199.722088 170.755814,200.570342 170.874603,201.735505 C170.880659,201.794903 170.884203,201.854531 170.885227,201.914228 C170.951441,205.77597 171.042158,209.464788 171.157366,212.980684 C171.304317,217.465325 171.56533,223.933528 171.940405,232.385292 C172.311763,242.095058 172.546049,249.112847 172.643263,253.43866 C172.72565,257.104714 172.961575,262.031649 173.351037,268.219466 L173.351063,268.219465 C173.425006,269.394269 172.532581,270.406578 171.357776,270.480521 C171.208221,270.489934 171.058089,270.483549 170.909873,270.461471 C170.909873,270.461471 170.909873,270.461471 170.909873,270.461471 C170.811364,270.446797 170.618658,270.437555 170.331757,270.433743 L170.331757,270.43376 C167.756374,270.400196 165.627842,268.41574 165.414153,265.849019 C165.203718,263.332577 165.094102,261.941607 165.085489,261.676094 C164.772715,252.034173 164.728839,252.604027 164.462549,245.489363 C164.2234,239.099857 163.751935,224.701888 163.635824,221.60864 C163.515182,218.394656 163.553873,214.899501 163.416015,211.827559 C163.370289,210.808637 163.150048,207.392116 162.755293,201.577994 L162.755273,201.577996 C162.674942,200.394848 163.568952,199.370596 164.7521,199.290265 C164.77732,199.288552 164.802568,199.287285 164.827832,199.286465 Z" id="Rectangle"></path>
            <path d="M223.658271,185.218013 C223.658271,185.218013 223.658271,185.218013 223.658271,185.218013 C223.772956,185.215975 225.607853,186.023418 227.099953,185.877785 C227.099953,185.877785 227.099953,185.877785 227.099953,185.877785 C228.167765,185.773563 229.117885,186.554707 229.222107,187.622518 C229.228282,187.685791 229.231348,187.74933 229.231294,187.812904 C229.227624,192.05451 229.250864,196.102233 229.301004,199.956075 C229.363342,204.747493 229.498743,211.659055 229.707206,220.69076 C229.891491,231.065704 229.993055,238.563633 230.011896,243.184548 C230.028152,247.171175 230.170395,252.555978 230.438626,259.338958 L230.438665,259.338956 C230.481198,260.414517 229.643763,261.320911 228.568202,261.363444 C228.41943,261.369327 228.270474,261.358143 228.124248,261.330112 C228.124248,261.330112 228.124248,261.330112 228.124248,261.330112 C228.063775,261.318519 227.964772,261.308726 227.82724,261.300734 L227.827227,261.300957 C225.290606,261.15551 223.26639,259.130787 223.121579,256.59413 C222.956929,253.720363 222.872702,252.13664 222.868965,251.842957 C222.737878,241.541525 222.687807,242.149222 222.558167,234.547267 C222.441741,227.720136 222.241904,212.337261 222.18523,209.032147 C222.126344,205.598026 222.219816,201.86657 222.142628,198.583811 C222.1166,197.476892 221.964192,193.720822 221.685402,187.315599 L221.685412,187.315598 C221.637129,186.206292 222.497258,185.26788 223.606564,185.219597 C223.623792,185.218848 223.64103,185.218319 223.658271,185.218013 Z" id="Rectangle"></path>
            <path d="M262.934223,152.255557 C262.934223,152.255557 262.934223,152.255557 262.934223,152.255557 C263.049828,152.257602 264.867151,153.322172 266.375802,153.20245 C266.375802,153.20245 266.375802,153.20245 266.375802,153.20245 C267.441446,153.117883 268.373876,153.913203 268.458442,154.978847 C268.464135,155.050578 268.465823,155.122571 268.463498,155.19449 C268.289575,160.57539 268.152329,165.704769 268.051738,170.582625 C267.930316,176.470579 267.80098,184.965682 267.663728,196.067935 C267.450477,208.819181 267.264511,218.0332 267.105829,223.709993 C266.966119,228.708086 266.902599,235.500038 266.915269,244.085851 L266.915216,244.085851 C266.916767,245.137163 266.065769,245.990677 265.014457,245.992229 C264.842897,245.992482 264.67209,245.969541 264.506676,245.924031 C264.506676,245.924031 264.506676,245.924031 264.506676,245.924031 C264.438835,245.905365 264.322058,245.88756 264.156344,245.870615 L264.156352,245.870537 C261.636414,245.612465 259.707609,243.510658 259.666409,240.977875 C259.598924,236.763196 259.569319,234.457975 259.577573,234.062215 C259.841586,221.403376 259.767783,222.147848 259.929467,212.804937 C260.074671,204.414295 260.464797,185.511 260.53478,181.448955 C260.607494,177.228359 260.845117,172.648577 260.893575,168.613177 C260.910227,167.226456 260.90044,162.454837 260.864214,154.29832 L260.864231,154.29832 C260.859242,153.174958 261.765862,152.260249 262.889224,152.255259 C262.904224,152.255193 262.919225,152.255292 262.934223,152.255557 Z" id="Rectangle"></path>
            <path d="M28.0043777,154.218313 C28.1093472,153.801023 28.2756637,153.586501 28.5033271,153.574747 C28.6490505,153.567223 31.0161007,154.459847 32.9069949,154.218313 C32.9069949,154.218313 32.9069949,154.218313 32.9069949,154.218313 C34.2673935,154.044542 35.5110837,155.006494 35.6848547,156.366893 C35.6945858,156.443074 35.7007774,156.519665 35.7034097,156.59642 C35.8770768,161.661 36.0762948,166.494821 36.3010415,171.097886 C36.5830157,176.873036 37.0475814,185.201608 37.6947387,196.083602 C38.3679873,208.586458 38.814341,217.623617 39.0337998,223.19508 C39.22194,227.971448 39.6266566,234.407149 40.2479497,242.502185 L40.2479532,242.502184 C40.3533236,243.875091 39.3257827,245.073471 37.9528762,245.178841 C37.7689693,245.192956 37.5840639,245.186619 37.4015548,245.159947 C37.4015548,245.159947 37.4015548,245.159947 37.4015548,245.159947 C37.2178339,245.133097 36.758366,245.128081 36.0231511,245.144899 L36.0231516,245.144921 C33.4051918,245.204302 31.1848931,243.233725 30.932964,240.627239 C30.542005,236.562275 30.3373035,234.337082 30.3186024,233.951685 C29.7161001,221.535126 29.678151,222.270151 29.1917,213.108789 C28.7548302,204.881193 27.8499315,186.340032 27.6380418,182.356945 C27.4178816,178.218389 27.8750682,176.34496 27.6380418,172.389737 C27.5482391,170.891212 27.670351,164.834071 28.0043777,154.218313 L28.0043777,154.218313 Z" id="Rectangle"></path>
            <path d="M69.8806008,97.6297294 C69.8806008,97.6297294 69.8806008,97.6297294 69.8806008,97.6297294 C69.8466334,97.5186272 71.7050934,95.0219534 70.9225595,93.6784268 C70.9225595,93.6784268 70.9225595,93.6784268 70.9225595,93.6784268 C70.4358472,92.8427941 70.7187031,91.7708217 71.5543358,91.2841095 C71.674149,91.2143245 71.8018271,91.1590178 71.934687,91.1193517 C85.5255049,87.0617566 98.4259966,83.1757975 110.63617,79.4615025 C124.320857,75.2986655 144.049687,69.2490754 169.82266,61.312732 C199.442256,52.2503537 220.855975,45.7321223 234.063817,41.7580379 C246.283184,38.0813741 263.06423,32.8858347 284.406955,26.1714195 L284.406952,26.1714099 C285.239871,25.909374 286.127507,26.3721657 286.389542,27.2050842 C286.479115,27.4898031 286.486261,27.7940619 286.410155,28.0826722 C286.410155,28.0826722 286.410155,28.0826722 286.410155,28.0826722 C286.381178,28.1925586 286.388778,28.3935598 286.432956,28.6856759 L286.432754,28.6857064 C286.800133,31.1104964 285.354618,33.4438103 283.019912,34.1946268 C269.161399,38.6453851 261.679122,41.0385628 260.573299,41.3748337 C231.150841,50.3219391 232.9007,49.8510134 211.196432,56.4859179 C191.704356,62.4445647 147.769526,75.8090796 138.333202,78.6940532 C128.528557,81.691634 117.836365,84.7938188 108.468994,87.6798425 C105.092824,88.7200177 93.0979678,92.4931383 72.4844257,98.9992043 L72.4844169,98.9991763 C71.3936869,99.3434336 70.2303998,98.7382978 69.8861426,97.6475678 C69.8842685,97.6416301 69.8824212,97.6356839 69.8806008,97.6297294 Z" id="Rectangle" transform="translate(178.3284, 62.2661) rotate(6) translate(-178.3284, -62.2661)"></path>
            <path d="M264.576224,209.589108 C265.901022,209.589108 266.839449,209.725796 267.807851,208.682734 C268.81972,207.592853 269.84463,205.279098 270.439242,203.232563 C270.936205,201.522116 271.576224,199.194138 271.576224,197.135921 C271.576224,193.762537 271.410891,191.550602 270.439242,189.386785 C269.892059,188.168236 268.926829,186.460426 267.989444,185.806082 C267.197677,185.253386 265.478181,184.682734 264.576224,184.682734 C263.751343,184.682734 262.686079,185.276726 261.89043,185.806082 C260.63218,186.643212 259.711818,187.751808 258.925303,189.386785 C257.878224,191.563412 257.576224,194.0464 257.576224,197.135921 C257.576224,199.817366 257.829565,202.22256 258.640204,204.415777 C259.113156,205.695368 259.923134,207.098473 260.595081,207.926742 C261.191037,208.661341 261.619567,209.354205 262.329993,209.589108 C262.967093,209.799767 263.876793,209.589108 264.576224,209.589108 Z" id="Oval"></path>
            <path d="M228.576224,236.589108 C229.901022,236.589108 230.839449,236.725796 231.807851,235.682734 C232.81972,234.592853 233.84463,232.279098 234.439242,230.232563 C234.936205,228.522116 235.576224,226.194138 235.576224,224.135921 C235.576224,220.762537 235.410891,218.550602 234.439242,216.386785 C233.892059,215.168236 232.926829,213.460426 231.989444,212.806082 C231.197677,212.253386 229.478181,211.682734 228.576224,211.682734 C227.751343,211.682734 226.686079,212.276726 225.89043,212.806082 C224.63218,213.643212 223.711818,214.751808 222.925303,216.386785 C221.878224,218.563412 221.576224,221.0464 221.576224,224.135921 C221.576224,226.817366 221.829565,229.22256 222.640204,231.415777 C223.113156,232.695368 223.923134,234.098473 224.595081,234.926742 C225.191037,235.661341 225.619567,236.354205 226.329993,236.589108 C226.967093,236.799767 227.876793,236.589108 228.576224,236.589108 Z" id="Oval"></path>
            <path d="M61.7438125,232.448777 C63.0506631,232.337997 63.9886456,232.395396 64.850308,231.277598 C65.7506459,230.109629 66.5539985,227.72402 66.9568674,225.640014 C67.2935761,223.898249 67.7159749,221.530687 67.5312386,219.48479 C67.2284585,216.131598 66.8668326,213.946729 65.7141319,211.877113 C65.0649907,210.711614 63.9595509,209.094739 62.9761344,208.522696 C62.1454859,208.039516 60.3980647,207.616064 59.5083269,207.691486 C58.6946209,207.760463 57.6971026,208.439977 56.9597448,209.032696 C55.7936779,209.970031 54.9852877,211.148952 54.356176,212.839911 C53.5186467,215.091066 53.4435992,217.584445 53.7209008,220.655473 C53.9615754,223.320867 54.4273643,225.69048 55.423875,227.802783 C56.0052704,229.035167 56.9302114,230.362142 57.667397,231.129265 C58.321214,231.809634 58.8061269,232.462516 59.528012,232.636607 C60.1753896,232.79273 61.0538569,232.507264 61.7438125,232.448777 Z" id="Oval"></path>
            <path d="M112.743813,245.448777 C114.050663,245.337997 114.988646,245.395396 115.850308,244.277598 C116.750646,243.109629 117.553999,240.72402 117.956867,238.640014 C118.293576,236.898249 118.715975,234.530687 118.531239,232.48479 C118.228459,229.131598 117.866833,226.946729 116.714132,224.877113 C116.064991,223.711614 114.959551,222.094739 113.976134,221.522696 C113.145486,221.039516 111.398065,220.616064 110.508327,220.691486 C109.694621,220.760463 108.697103,221.439977 107.959745,222.032696 C106.793678,222.970031 105.985288,224.148952 105.356176,225.839911 C104.518647,228.091066 104.443599,230.584445 104.720901,233.655473 C104.961575,236.320867 105.427364,238.69048 106.423875,240.802783 C107.00527,242.035167 107.930211,243.362142 108.667397,244.129265 C109.321214,244.809634 109.806127,245.462516 110.528012,245.636607 C111.17539,245.79273 112.053857,245.507264 112.743813,245.448777 Z" id="Oval"></path>
            <path d="M169.743813,248.448777 C171.050663,248.337997 171.988646,248.395396 172.850308,247.277598 C173.750646,246.109629 174.553999,243.72402 174.956867,241.640014 C175.293576,239.898249 175.715975,237.530687 175.531239,235.48479 C175.228459,232.131598 174.866833,229.946729 173.714132,227.877113 C173.064991,226.711614 171.959551,225.094739 170.976134,224.522696 C170.145486,224.039516 168.398065,223.616064 167.508327,223.691486 C166.694621,223.760463 165.697103,224.439977 164.959745,225.032696 C163.793678,225.970031 162.985288,227.148952 162.356176,228.839911 C161.518647,231.091066 161.443599,233.584445 161.720901,236.655473 C161.961575,239.320867 162.427364,241.69048 163.423875,243.802783 C164.00527,245.035167 164.930211,246.362142 165.667397,247.129265 C166.321214,247.809634 166.806127,248.462516 167.528012,248.636607 C168.17539,248.79273 169.053857,248.507264 169.743813,248.448777 Z" id="Oval"></path>
            <path d="M31.5082342,218.478548 C32.8211607,218.389887 33.76103,218.463135 34.6455786,217.36012 C35.56983,216.207596 36.4187981,213.836024 36.8605837,211.759226 C37.229818,210.023485 37.6963187,207.663515 37.5479785,205.614883 C37.3048512,202.257208 36.9815814,200.066639 35.862688,197.977925 C35.2325853,196.80167 34.1529185,195.166411 33.1767739,194.577847 C32.3522677,194.080714 30.6070514,193.627795 29.7131769,193.688158 C28.8956878,193.743362 27.8827802,194.40588 27.1324125,194.986019 C25.9457716,195.903458 25.1135566,197.068486 24.4519258,198.748487 C23.5711043,200.985052 23.4507641,203.476689 23.6734327,206.551822 C23.8666903,209.22078 24.2911092,211.59782 25.2525543,213.726572 C25.8134913,214.968552 26.7173354,216.310916 27.4429562,217.090358 C28.0865162,217.781653 28.5611424,218.442611 29.2821318,218.628875 C29.9287061,218.795915 30.8150708,218.525357 31.5082342,218.478548 Z" id="Oval"></path>
            <path d="M56.4749848,103.946262 C60.1593219,103.946262 62.7691401,104.161708 65.4623211,102.517647 C68.2763848,100.799794 71.126716,97.1528873 72.7803657,93.9271695 C74.1624484,91.2311882 75.9423751,87.5618639 75.9423751,84.3177336 C75.9423751,79.0006548 75.4825767,75.5142367 72.7803657,72.1036609 C71.2586207,70.1830016 68.5742604,67.4911771 65.967342,66.4598092 C63.765393,65.5886584 58.9833773,64.6892049 56.4749848,64.6892049 C54.1809451,64.6892049 51.218387,65.6254464 49.0056418,66.4598092 C45.5063788,67.7792811 42.9468025,69.5266341 40.7594599,72.1036609 C37.8474757,75.5344271 37.0075945,79.4480769 37.0075945,84.3177336 C37.0075945,88.544187 37.712151,92.3352189 39.966584,95.7921346 C41.2818905,97.809007 43.5344831,100.02056 45.403205,101.326065 C47.0605923,102.48393 48.2523583,103.576011 50.2280914,103.946262 C51.9999042,104.278299 54.5298279,103.946262 56.4749848,103.946262 Z" id="Oval" transform="translate(56.475, 84.3915) rotate(-22) translate(-56.475, -84.3915)"></path>
        </g>
    </g>
</svg>